# AST/ASF file generated using VICON BodyLanguage
# -----------------------------------------------
:version 1.10
:name VICON
:units
  mass 1.0
  length 0.45
  angle deg
:documentation
   .ast/.asf automatically generated from VICON data using
   VICON BodyBuilder and BodyLanguage model FoxedUp or BRILLIANT.MOD
:root
   order TX TY TZ RX RY RZ
   axis XYZ
   position 0 0 0  
   orientation 0 0 0 
:bonedata
  begin
     id 1 
     name lhipjoint
     direction 0.630082 -0.636569 0.44472 
     length 2.82754 
     axis 0 0 0  XYZ
  end
  begin
     id 2 
     name lfemur
     direction 0.34202 -0.939693 0  
     length 7.26371  
     axis 0 0 20  XYZ
    dof rx ry rz
    limits (-160.0 20.0)
           (-70.0 70.0)
           (-60.0 70.0)
  end
  begin
     id 3 
     name ltibia
     direction 0.34202 -0.939693 0   
     length 7.88616   
     axis 0 0 20   XYZ
    dof rx
    limits (-10.0 170.0)
  end
  begin
     id 4 
     name lfoot
     direction 0.0603448 -0.165796 0.984312   
     length 1.77861   
     axis -90 7.62852e-016 20   XYZ
    dof rx rz
    limits (-45.0 90.0)
           (-70.0 20.0)
  end
  begin
     id 5 
     name ltoes
     direction 1.53577e-011 -4.21876e-011 1   
     length 0.902235   
     axis -90 7.62852e-016 20   XYZ
    dof rx
    limits (-90.0 20.0)
  end
  begin
     id 6 
     name rhipjoint
     direction -0.656778 -0.61817 0.431866   
     length 2.9117  
     axis 0 0 0  XYZ 
  end
  begin
     id 7 
     name rfemur
     direction -0.34202 -0.939693 0   
     length 6.81603   
     axis 0 0 -20   XYZ
    dof rx ry rz
    limits (-160.0 20.0)
           (-70.0 70.0)
           (-70.0 60.0)
  end
  begin
     id 8 
     name rtibia
     direction -0.34202 -0.939693 0   
     length 8.05997   
     axis 0 0 -20   XYZ
    dof rx
    limits (-10.0 170.0)
 end
 begin
     id 9 
     name rfoot
     direction -0.0862404 -0.236944 0.967688   
     length 1.84899  
     axis -90 -7.62852e-016 -20   XYZ
    dof rx rz
    limits (-45.0 90.0)
           (-20.0 70.0)
  end
  begin
     id 10 
     name rtoes
     direction -1.53561e-011 -4.21798e-011 1   
     length 0.931579   
     axis -90 -7.62852e-016 -20   XYZ
    dof rx
    limits (-90.0 20.0)
  end
  begin
     id 11 
     name lowerback
     direction -0.0110203 0.991769 -0.127564   
     length 2.05686   
     axis 0 0 0   XYZ
    dof rx ry rz
    limits (-20.0 45.0)
           (-30.0 30.0)
           (-30.0 30.0)
  end
  begin
     id 12 
     name upperback
     direction 0.0109719 0.99993 -0.00432479   
     length 2.06234   
     axis 0 0 0   XYZ
    dof rx ry rz
    limits (-20.0 45.0)
           (-30.0 30.0)
           (-30.0 30.0)
  end
  begin
     id 13 
     name thorax
     direction 0.0173308 0.998351 0.0547306   
     length 2.09856   
     axis 0 0 0   XYZ
    dof rx ry rz
    limits (-20.0 45.0)
           (-30.0 30.0)
           (-30.0 30.0)
  end
  begin
     id 14 
     name lowerneck
     direction -0.0311736 0.989033 0.144366   
     length 1.98151   
     axis 0 0 0   XYZ
    dof rx ry rz
    limits (-20.0 45.0)
           (-30.0 30.0)
           (-30.0 30.0)
  end
  begin
     id 15 
     name upperneck
     direction 0.0421057 0.975772 -0.214698   
     length 2.01457   
     axis 0 0 0   XYZ
    dof rx ry rz
    limits (-20.0 45.0)
           (-30.0 30.0)
           (-30.0 30.0)
  end
  begin
     id 16
     name head
     direction 0.0136911 0.995958 -0.0887718  
     length 2.03562  
     axis 0 0 0   XYZ
    dof rx ry rz
    limits (-20.0 45.0)
           (-30.0 30.0)
           (-30.0 30.0)
  end
  begin
     id 17 
     name lclavicle
     direction 0.915335 0.396201 0.0720134  
     length 4.16217  
     axis 0 0 0   XYZ
    dof ry rz
    limits (-20.0 10.0)
           (0.0 20.0)
  end
  begin
     id 18 
     name lhumerus
     direction 1 -4.48965e-011 6.383e-018   
     length 4.93042   
     axis -180 -30 -90   XYZ
    dof rx ry rz
    limits (-60.0 90.0)
           (-90.0 90.0)
           (-90.0 90.0)
  end
  begin
     id 19
     name lradius
     direction 1 -4.48972e-011 8.8689e-027   
     length 3.68177   
     axis -180 -30 -90   XYZ
    dof rx
    limits (-10.0 170.0)
  end
  begin
     id 20
     name lwrist
     direction 1 -4.48953e-011 1.17971e-026   
     length 1.84089   
     axis -7.69454e-015 90 90   XYZ
    dof ry
    limits (-180.0 0.0)
 end
  begin
     id 21 
     name lhand
     direction 1 -4.49027e-011 2.35802e-026   
     length 0.721479   
     axis -1.50533e-014 90 90   XYZ
    dof rx rz
    limits (-90.0 90.0)
           (-45.0 45.0)
  end
  begin
     id 22 
     name lfingers
     direction 1 -4.48915e-011 4.72027e-026   
     length 0.581675   
     axis -3.01059e-014 90 90   XYZ
    dof rx
    limits (0.0 90.0)
  end
  begin
     id 23
     name lthumb
     direction 0.707107 -6.34948e-011 0.707107   
     length 0.835172   
     axis -90 45 -5.12164e-014   XYZ
    dof rx rz
    limits (-45.0 45.0)
           (-45.0 45.0)
  end
  begin
     id 24 
     name rclavicle
     direction -0.882781 0.469197 0.0234974   
     length 3.95647  
     axis 0 0 0   XYZ 
    dof ry rz
    limits (-10.0 20.0)
           (-20.0 0.0)
  end
  begin
     id 25 
     name rhumerus
     direction -1 -4.48965e-011 -1.54906e-018  
     length 5.07905   
     axis -180 30 90   XYZ
    dof rx ry rz
    limits (-90.0 60.0)
           (-90.0 90.0)
           (-90.0 90.0)
  end
  begin
     id 26 
     name rradius
     direction -1 -4.48972e-011 5.47489e-027   
     length 3.54394   
     axis -180 30 90   XYZ
    dof rx
    limits (-10.0 170.0)
  end
  begin
     id 27 
     name rwrist
     direction -1 -4.48955e-011 1.17969e-026   
     length 1.77197   
     axis -7.69454e-015 -90 -90   XYZ
    dof ry
    limits (-180.0 0.0)
  end
  begin
     id 28
     name rhand
     direction -1 -4.48982e-011 2.35888e-026   
     length 0.681156   
     axis -1.50533e-014 -90 -90   XYZ
    dof rx rz
    limits (-90.0 90.0)
           (-45.0 45.0)
  end
  begin
     id 29
     name rfingers
     direction -1 -4.48955e-011 4.71877e-026   
     length 0.549165   
     axis -3.01059e-014 -90 -90   XYZ
    dof rx
    limits (0.0 90.0)
  end
  begin
     id 30
     name rthumb
     direction -0.707107 -6.3491e-011 0.707107   
     length 0.788495   
     axis -90 -45 5.12164e-014   XYZ
    dof rx rz
    limits (-45.0 45.0)
           (-45.0 45.0)
  end
:hierarchy
  begin
    root lhipjoint rhipjoint lowerback
    lhipjoint lfemur
    lfemur ltibia
    ltibia lfoot
    lfoot ltoes
    rhipjoint rfemur
    rfemur rtibia
    rtibia rfoot
    rfoot rtoes
    lowerback upperback
    upperback thorax
    thorax lowerneck lclavicle rclavicle
    lowerneck upperneck
    upperneck head
    lclavicle lhumerus
    lhumerus lradius
    lradius lwrist
    lwrist lhand lthumb
    lhand lfingers
    rclavicle rhumerus
    rhumerus rradius
    rradius rwrist
    rwrist rhand rthumb
    rhand rfingers
  end

#!OML:ASF H:\Bending\Project 1\Capture day 1\Session 1\Subject.ASF
:FULLY-SPECIFIED
:DEGREES
173
root -10.5582 14.8829 -16.2657 35.3828 93.8063 30.4898
lowerback 35.3633 -1.93651 4.26701
upperback 5.50273 0.187784 2.12171
thorax -11.6418 0.265023 -0.113282
lowerneck -22.1225 -4.63677 -8.15898
upperneck 15.2535 -5.10121 6.60393
head 8.7763 -2.17127 2.87382
rclavicle 1.19271e-014 6.36111e-015
rhumerus -4.40789 -4.06902 -93.0478
rradius 42.7913
rwrist 16.649
rhand -20.6196 -11.3316
rfingers 7.12502
rthumb 5.74166 -41.2338
lclavicle 1.19271e-014 6.36111e-015
lhumerus 1.8365 -12.9114 100.706
lradius 48.5582
lwrist 3.72225
lhand -33.5031 17.8948
lfingers 7.12502
lthumb -6.69986 47.7688
rfemur -49.1915 -42.0072 17.3708
rtibia 81.6963
rfoot -21.1362 8.4037
rtoes -3.84847
lfemur -48.8545 13.8054 -10.4892
ltibia 80.5137
lfoot -24.6014 -18.2702
ltoes -11.0733
174
root -10.514 15.0629 -16.2976 39.521 93.7077 34.6617
lowerback 34.113 -1.82644 4.14456
upperback 5.4848 0.184382 2.27914
thorax -11.3029 0.256671 0.0936801
lowerneck -22.2874 -4.4725 -7.92292
upperneck 15.9379 -4.87954 6.19732
head 9.00467 -2.0939 2.73045
rclavicle 7.95139e-016 2.78299e-014
rhumerus -5.28133 -2.74707 -92.3973
rradius 43.4196
rwrist 16.3667
rhand -19.5232 -10.9984
rfingers 7.12502
rthumb 6.80007 -40.8692
lclavicle 7.95139e-016 2.78299e-014
lhumerus 0.761045 -14.1298 100.289
lradius 49.3344
lwrist 4.06501
lhand -33.8152 18.2235
lfingers 7.12502
lthumb -7.00116 48.0878
rfemur -47.2554 -40.7774 17.1501
rtibia 79.1728
rfoot -20.8318 8.00017
rtoes -4.91662
lfemur -47.2974 13.1299 -10.3457
ltibia 78.4325
lfoot -24.9135 -17.1395
ltoes -13.943
175
root -10.4674 15.2359 -16.3203 45.3201 93.5312 40.0515
lowerback 32.3218 -1.61274 3.92637
upperback 5.31192 0.227223 2.40676
thorax -10.7901 0.264223 0.319696
lowerneck -22.4505 -4.31019 -7.69041
upperneck 16.6695 -4.66729 5.83948
head 9.25493 -2.01654 2.60354
rclavicle 5.1684e-015 -3.29983e-014
rhumerus -6.29098 -1.2178 -91.7615
rradius 44.2382
rwrist 16.0767
rhand -18.3187 -11.019
rfingers 7.12502
rthumb 7.96276 -40.8491
lclavicle 5.1684e-015 -3.29983e-014
lhumerus -0.374132 -15.3837 99.8279
lradius 50.0066
lwrist 4.73909
lhand -34.2571 18.4836
lfingers 7.12502
lthumb -7.42774 48.3332
rfemur -46.0718 -39.2046 17.4113
rtibia 76.6787
rfoot -20.5817 7.25501
rtoes -6.28556
lfemur -46.2456 12.7211 -10.3034
ltibia 76.3395
lfoot -25.1167 -16.1199
ltoes -15.9603
176
root -10.4173 15.4207 -16.3421 51.5697 93.3249 46.143
lowerback 30.7209 -1.40619 3.70561
upperback 5.51885 0.277349 2.4512
thorax -10.6656 0.288882 0.500054
lowerneck -22.609 -4.1751 -7.48776
upperneck 17.416 -4.49624 5.55763
head 9.51899 -1.95228 2.50211
rclavicle -6.36111e-015 5.56597e-015
rhumerus -7.3781 0.368806 -91.1703
rradius 45.1626
rwrist 15.7666
rhand -17.099 -11.3104
rfingers 7.12502
rthumb 9.13985 -41.0923
lclavicle -6.36111e-015 5.56597e-015
lhumerus -1.58782 -16.7011 99.3536
lradius 50.6334
lwrist 5.76075
lhand -34.7605 18.6746
lfingers 7.12502
lthumb -7.91366 48.5065
rfemur -44.3601 -37.3949 17.3927
rtibia 74.018
rfoot -20.421 6.36641
rtoes -7.54798
lfemur -44.7233 12.3248 -10.2639
ltibia 74.0616
lfoot -25.37 -15.1546
ltoes -17.1581
177
root -10.3651 15.6117 -16.3649 58.1747 93.0752 52.7414
lowerback 29.5774 -1.221 3.53565
upperback 5.25121 0.353921 2.43935
thorax -10.407 0.310369 0.55157
lowerneck -22.7803 -4.08148 -7.32448
upperneck 18.158 -4.37839 5.3354
head 9.79346 -1.90859 2.41995
rclavicle 1.31198e-014 5.12864e-014
rhumerus -8.44514 1.87546 -90.6421
rradius 46.0646
rwrist 15.4644
rhand -15.9904 -11.7575
rfingers 7.12502
rthumb 10.2094 -41.4898
lclavicle 1.31198e-014 5.12864e-014
lhumerus -2.87786 -18.0702 98.9068
lradius 51.2727
lwrist 7.06944
lhand -35.2645 18.8
lfingers 7.12502
lthumb -8.40005 48.613
rfemur -42.3482 -35.343 17.156
rtibia 71.245
rfoot -20.3071 5.35951
rtoes -8.41668
lfemur -42.9026 11.9091 -10.3003
ltibia 71.6333
lfoot -25.6568 -14.1358
ltoes -17.9219
178
root -10.3123 15.801 -16.3902 65.1402 92.7648 59.6976
lowerback 28.462 -1.02676 3.34224
upperback 4.97119 0.437476 2.3771
thorax -10.1674 0.335309 0.559233
lowerneck -22.9867 -4.02731 -7.19063
upperneck 18.8928 -4.30345 5.12974
head 10.0789 -1.88463 2.34145
rclavicle -3.57812e-015 -1.23246e-014
rhumerus -9.40862 3.22658 -90.1829
rradius 46.8421
rwrist 15.224
rhand -15.101 -12.266
rfingers 7.12502
rthumb 11.0673 -41.9542
lclavicle -3.57812e-015 -1.23246e-014
lhumerus -4.2343 -19.4471 98.5246
lradius 51.9662
lwrist 8.56319
lhand -35.7512 18.865
lfingers 7.12502
lthumb -8.86976 48.6585
rfemur -40.3361 -33.0955 16.797
rtibia 68.4002
rfoot -20.1837 4.22996
rtoes -8.88041
lfemur -41.0355 11.4576 -10.4894
ltibia 69.089
lfoot -25.9141 -12.9514
ltoes -18.7301
179
root -10.2594 15.9852 -16.4191 72.6661 92.3865 67.2056
lowerback 27.3548 -0.830213 3.08883
upperback 4.68862 0.510906 2.27731
thorax -9.92693 0.357772 0.565341
lowerneck -23.2402 -3.9976 -7.06612
upperneck 19.6275 -4.24778 4.90193
head 10.3773 -1.87265 2.25285
rclavicle -1.98785e-015 -5.1684e-015
rhumerus -10.2398 4.41487 -89.7938
rradius 47.4747
rwrist 15.0982
rhand -14.4782 -12.7862
rfingers 7.12502
rthumb 11.668 -42.4413
lclavicle -1.98785e-015 -5.1684e-015
lhumerus -5.64781 -20.7742 98.2286
lradius 52.7322
lwrist 10.1454
lhand -36.2435 18.8678
lfingers 7.12502
lthumb -9.34474 48.6407
rfemur -38.3891 -30.7538 16.3084
rtibia 65.6063
rfoot -20.1138 2.98511
rtoes -9.1777
lfemur -39.1922 10.9497 -10.8482
ltibia 66.5565
lfoot -26.1704 -11.5927
ltoes -19.8443
180
root -10.2066 16.1626 -16.4517 81.4214 91.9559 75.9297
lowerback 26.2418 -0.644945 2.7592
upperback 4.40394 0.555311 2.15235
thorax -9.67849 0.369691 0.599528
lowerneck -23.5342 -3.97366 -6.93655
upperneck 20.3692 -4.18896 4.64471
head 10.6882 -1.86248 2.15248
rclavicle -5.96354e-016 -8.34896e-015
rhumerus -10.9756 5.51837 -89.4689
rradius 48.0042
rwrist 15.0685
rhand -14.1321 -13.3017
rfingers 7.12502
rthumb 12.0018 -42.9376
lclavicle -5.96354e-016 -8.34896e-015
lhumerus -7.10986 -22.001 98.0236
lradius 53.5691
lwrist 11.7591
lhand -36.7724 18.7984
lfingers 7.12502
lthumb -9.85504 48.5477
rfemur -36.511 -28.4386 15.7203
rtibia 62.8213
rfoot -20.0478 1.61607
rtoes -9.6156
lfemur -37.3923 10.3796 -11.3608
ltibia 64.0098
lfoot -26.3383 -10.0956
ltoes -21.177
181
root -10.1558 16.2926 -16.487 92.8109 91.5171 87.2947
lowerback 25.1439 -0.486447 2.36428
upperback 4.11601 0.559031 2.01433
thorax -9.43471 0.365381 0.67204
lowerneck -23.8424 -3.94323 -6.80523
upperneck 21.1162 -4.11782 4.38789
head 11.007 -1.84692 2.05326
rclavicle 4.37326e-015 -1.59028e-015
rhumerus -11.678 6.47424 -89.2342
rradius 48.5936
rwrist 15.1945
rhand -13.9326 -13.836
rfingers 7.12502
rthumb 12.1941 -43.4606
lclavicle 4.37326e-015 -1.59028e-015
lhumerus -8.60845 -23.0998 97.9033
lradius 54.4642
lwrist 13.3946
lhand -37.3389 18.6432
lfingers 7.12502
lthumb -10.4016 48.3659
rfemur -34.8447 -26.2719 15.0554
rtibia 60.2155
rfoot -19.9594 0.163076
rtoes -10.328
lfemur -35.7964 9.7662 -11.952
ltibia 61.6332
lfoot -26.3715 -8.59815
ltoes -22.3711
182
root -10.103 16.4582 -16.5233 109.046 91.1396 103.53
lowerback 24.081 -0.365225 1.9389
upperback 3.82266 0.521563 1.87696
thorax -9.20823 0.343618 0.776778
lowerneck -24.1263 -3.90582 -6.69379
upperneck 21.8547 -4.04115 4.17986
head 11.324 -1.82493 1.9758
rclavicle 6.75868e-015 3.61788e-014
rhumerus -12.461 7.36001 -89.0773
rradius 49.4037
rwrist 15.342
rhand -13.8202 -14.4249
rfingers 7.12502
rthumb 12.3025 -44.043
lclavicle 6.75868e-015 3.61788e-014
lhumerus -10.1257 -24.0714 97.8606
lradius 55.4053
lwrist 15.0699
lhand -37.9001 18.3994
lfingers 7.12502
lthumb -10.9429 48.0943
rfemur -32.967 -24.2928 14.4247
rtibia 57.3795
rfoot -19.8622 -1.36724
rtoes -11.1598
lfemur -34.0332 9.08748 -12.5926
ltibia 59.0865
lfoot -26.292 -7.18494
ltoes -23.0787
183
root -10.0501 16.6182 -16.5592 131.18 90.8997 125.687
lowerback 23.0473 -0.284009 1.53061
upperback 3.52135 0.452501 1.75727
thorax -8.99903 0.307613 0.900712
lowerneck -24.3476 -3.87001 -6.62885
upperneck 22.5641 -3.97263 4.05269
head 11.6261 -1.80089 1.93477
rclavicle -5.1684e-015 -1.19271e-015
rhumerus -13.3232 8.21447 -88.981
rradius 50.2845
rwrist 15.3768
rhand -13.869 -14.9674
rfingers 7.12502
rthumb 12.2554 -44.5883
lclavicle -5.1684e-015 -1.19271e-015
lhumerus -11.6414 -24.9396 97.8953
lradius 56.3884
lwrist 16.7978
lhand -38.388 18.0885
lfingers 7.12502
lthumb -11.4135 47.7578
rfemur -31.04 -22.5458 13.8681
rtibia 54.4726
rfoot -19.762 -2.87964
rtoes -11.7757
lfemur -32.2934 8.37019 -13.1911
ltibia 56.5602
lfoot -26.1038 -5.94391
ltoes -23.2128
184
root -9.99719 16.7713 -16.5942 153.864 90.8197 148.394
lowerback 22.0156 -0.239608 1.18544
upperback 3.20987 0.366125 1.67378
thorax -8.79517 0.262859 1.03223
lowerneck -24.4803 -3.84491 -6.624
upperneck 23.2249 -3.91903 3.99554
head 11.9009 -1.78046 1.92785
rclavicle -1.15295e-014 -2.62396e-014
rhumerus -14.2777 9.01525 -88.9276
rradius 51.249
rwrist 15.2239
rhand -14.0615 -15.4574
rfingers 7.12502
rthumb 12.0699 -45.0893
lclavicle -1.15295e-014 -2.62396e-014
lhumerus -13.1412 -25.737 98.0149
lradius 57.4199
lwrist 18.5596
lhand -38.75 17.7513
lfingers 7.12502
lthumb -11.7626 47.4011
rfemur -29.0146 -21.0229 13.434
rtibia 51.3524
rfoot -19.6306 -4.32392
rtoes -11.9165
lfemur -30.573 7.62323 -13.6961
ltibia 53.9716
lfoot -25.7709 -4.84135
ltoes -23.0015
185
root -9.94453 16.9153 -16.6282 169.147 90.8254 163.68
lowerback 20.9601 -0.227047 0.93689
upperback 2.88736 0.274564 1.64197
thorax -8.58383 0.214203 1.16454
lowerneck -24.519 -3.83159 -6.66752
upperneck 23.8276 -3.87078 3.95241
head 12.1402 -1.76596 1.93388
rclavicle 5.36719e-015 1.59028e-014
rhumerus -15.3266 9.77639 -88.892
rradius 52.2943
rwrist 14.8299
rhand -14.4126 -15.8978
rfingers 7.12502
rthumb 11.7312 -45.5493
lclavicle 5.36719e-015 1.59028e-014
lhumerus -14.624 -26.4882 98.228
lradius 58.5122
lwrist 20.3007
lhand -38.9769 17.4259
lfingers 7.12502
lthumb -11.9814 47.063
rfemur -26.937 -19.6892 13.1447
rtibia 48.091
rfoot -19.5473 -5.68332
rtoes -11.5999
lfemur -28.9453 6.85436 -14.0799
ltibia 51.4386
lfoot -25.3679 -3.82731
ltoes -22.8346
186
root -9.89236 17.0492 -16.662 175.45 90.8364 169.957
lowerback 19.8801 -0.242097 0.800387
upperback 2.5556 0.183828 1.66781
thorax -8.36285 0.164147 1.2929
lowerneck -24.4801 -3.82079 -6.72368
upperneck 24.3772 -3.80538 3.84852
head 12.3442 -1.75431 1.9222
rclavicle -1.78906e-015 5.96354e-015
rhumerus -16.4578 10.5193 -88.8608
rradius 53.3957
rwrist 14.2018
rhand -14.9553 -16.2808
rfingers 7.12502
rthumb 11.2079 -45.9614
lclavicle -1.78906e-015 5.96354e-015
lhumerus -16.1016 -27.1994 98.5325
lradius 59.6745
lwrist 21.9484
lhand -39.1028 17.1139
lfingers 7.12502
lthumb -12.1028 46.7439
rfemur -24.8069 -18.4885 12.9969
rtibia 44.671
rfoot -19.4795 -7.00002
rtoes -11.148
lfemur -27.4238 6.07069 -14.3361
ltibia 48.9787
lfoot -24.9056 -2.83068
ltoes -23.0352
